<svg width="94" height="129" viewBox="0 0 94 129" fill="none" xmlns="http://www.w3.org/2000/svg">
<path d="M28.7627 66.2207C24.8558 70.5854 22.4785 76.3491 22.4785 82.668C22.4791 96.2921 33.5242 107.338 47.1484 107.338C60.7726 107.338 71.8177 96.2921 71.8184 82.668C71.8184 76.3491 69.4411 70.5854 65.5342 66.2207H82.4951C83.094 67.6728 83.6069 69.1698 84.0264 70.7051L91.7607 72.7119C92.6426 72.9407 93.2586 73.7365 93.2588 74.6475V87.9941C93.2585 88.9074 92.6397 89.7051 91.7549 89.9316L83.7373 91.9834C82.9377 94.6227 81.8611 97.1418 80.542 99.5068L85.9287 109.268C86.3588 110.047 86.2213 111.018 85.5918 111.647L76.0566 121.183C75.4422 121.797 74.5012 121.944 73.7285 121.547L62.6904 115.875C60.7963 116.724 58.8203 117.424 56.7783 117.96L54.3613 127.28C54.1324 128.162 53.3358 128.778 52.4248 128.778H39.0791C38.1658 128.778 37.3681 128.158 37.1416 127.273L34.5498 117.148C32.9214 116.59 31.3424 115.924 29.8213 115.161L19.1396 121.396C18.3549 121.854 17.3592 121.726 16.7168 121.084L7.27539 111.642C6.63012 110.996 6.50421 109.995 6.96875 109.209L13.1055 98.835C11.9576 96.6766 11.0091 94.3955 10.2861 92.0166L2.04688 89.8799C1.16526 89.651 0.549015 88.8542 0.548828 87.9434V74.5977C0.549007 73.6846 1.1683 72.8869 2.05273 72.6602L10.0098 70.623C10.425 69.1166 10.9304 67.6469 11.5186 66.2207H28.7627ZM35.3066 65.7871C35.3066 63.3846 37.9907 61.9567 39.9834 63.2988L46.1631 67.4609C46.1824 67.474 46.2008 67.4886 46.2197 67.502C46.2383 67.4888 46.2573 67.4747 46.2764 67.4619L52.4561 63.2988C54.4487 61.9569 57.1317 63.3848 57.1318 65.7871V74.1123C57.1316 76.5146 54.4486 77.9427 52.4561 76.6006L46.2764 72.4385C46.2568 72.4253 46.2379 72.41 46.2188 72.3965C46.2001 72.4097 46.1821 72.4247 46.1631 72.4375L39.9834 76.6006C37.9909 77.9422 35.307 76.5144 35.3066 74.1123V65.7871ZM47.1475 0.433594C50.81 0.433594 53.7792 3.40291 53.7793 7.06543C53.7792 9.23464 52.7373 11.1603 51.127 12.3701V19.6211H73.1357C78.6585 19.6212 83.1357 24.0984 83.1357 29.6211V32.2666H86.2637C87.3682 32.2666 88.2636 33.1621 88.2637 34.2666V48.835C88.2635 49.9393 87.3681 50.835 86.2637 50.835H82.958V57.793C82.9578 58.3451 82.5102 58.793 81.958 58.793H12.3359C11.784 58.7927 11.3362 58.3449 11.3359 57.793V50.835H8.03125C6.92705 50.8347 6.03147 49.9392 6.03125 48.835V34.2666C6.03132 33.1623 6.92696 32.2669 8.03125 32.2666H11.5137V29.6211C11.5138 24.0985 15.9911 19.6214 21.5137 19.6211H43.1689V12.3711C41.5584 11.1613 40.5157 9.23484 40.5156 7.06543C40.5157 3.40319 43.4853 0.434049 47.1475 0.433594ZM27.2236 36.8076C25.8848 36.8079 24.7992 37.8936 24.7988 39.2324C24.7988 40.5716 25.8846 41.657 27.2236 41.6572H35.3066C36.6459 41.6572 37.7324 40.5717 37.7324 39.2324C37.7321 37.8934 36.6457 36.8076 35.3066 36.8076H27.2236ZM61.1738 36.8076C59.8349 36.8078 58.7493 37.8935 58.749 39.2324C58.749 40.5716 59.8347 41.6571 61.1738 41.6572H69.2568C70.5961 41.6572 71.6816 40.5717 71.6816 39.2324C71.6813 37.8934 70.5959 36.8076 69.2568 36.8076H61.1738Z" fill="url(#paint0_linear_2465_141)"/>
<defs>
<linearGradient id="paint0_linear_2465_141" x1="53.0902" y1="-9.67055" x2="46.9038" y2="128.778" gradientUnits="userSpaceOnUse">
<stop stop-color="#6DA0E1"/>
<stop offset="0.466346" stop-color="#5B62B3"/>
<stop offset="1" stop-color="#ECA6BB"/>
</linearGradient>
</defs>
</svg>
