<svg width="93" height="129" viewBox="0 0 93 129" fill="none" xmlns="http://www.w3.org/2000/svg">
<path d="M28.2129 66.2197C24.306 70.5843 21.9288 76.3483 21.9287 82.667C21.9291 96.2913 32.9742 107.337 46.5986 107.337C60.2232 107.337 71.2682 96.2914 71.2686 82.667C71.2684 76.3481 68.8914 70.5844 64.9844 66.2197H81.9463C82.5452 67.6718 83.0581 69.1689 83.4775 70.7041L91.2119 72.7109C92.0936 72.9396 92.7096 73.7357 92.71 74.6465V87.9932C92.7099 88.9066 92.0909 89.704 91.2061 89.9307L83.1885 91.9824C82.3889 94.6218 81.3123 97.1407 79.9932 99.5059L85.3799 109.267C85.81 110.046 85.6722 111.017 85.043 111.646L75.5078 121.182C74.8934 121.796 73.9525 121.943 73.1797 121.546L62.1406 115.874C60.2466 116.723 58.2713 117.423 56.2295 117.959L53.8125 127.279C53.5837 128.161 52.7871 128.777 51.876 128.777H38.5303C37.6167 128.777 36.8183 128.158 36.5918 127.272L34.001 117.147C32.3725 116.589 30.7937 115.923 29.2725 115.16L18.5908 121.396C17.806 121.854 16.8105 121.726 16.168 121.083L6.72656 111.641C6.08129 110.995 5.95507 109.994 6.41992 109.208L12.5566 98.834C11.4088 96.6756 10.4603 94.3945 9.7373 92.0156L1.49805 89.8789C0.616176 89.6501 0 88.8535 0 87.9424V74.5967C0.000372144 73.6836 0.619319 72.8858 1.50391 72.6592L9.46094 70.6221C9.87616 69.1155 10.3815 67.6459 10.9697 66.2197H28.2129ZM46.5986 0.433594C50.2612 0.433594 53.2305 3.40285 53.2305 7.06543C53.2303 9.23463 52.1884 11.1603 50.5781 12.3701V19.6211H72.5869C78.1097 19.6212 82.5869 24.0983 82.5869 29.6211V32.2666H85.7148C86.8194 32.2666 87.7148 33.162 87.7148 34.2666V48.835C87.7146 49.9393 86.8193 50.835 85.7148 50.835H82.4092V57.793C82.409 58.3451 81.9613 58.793 81.4092 58.793H11.7871C11.235 58.7929 10.7873 58.345 10.7871 57.793V50.835H7.48242C6.37803 50.8349 5.48264 49.9393 5.48242 48.835V34.2666C5.48242 33.1621 6.37789 32.2666 7.48242 32.2666H10.9648V29.6211C10.9649 24.0983 15.442 19.6211 20.9648 19.6211H42.6201V12.3711C41.0094 11.1613 39.9669 9.23495 39.9668 7.06543C39.9668 3.40298 42.9362 0.433799 46.5986 0.433594ZM30.6826 32.2666C27.0201 32.2666 24.0508 35.2359 24.0508 38.8984C24.0509 39.7341 24.2071 40.5331 24.4893 41.2695C25.7045 39.5611 27.8579 38.4248 30.3125 38.4248C33.087 38.4249 35.4759 39.8768 36.5605 41.9658C37.0405 41.0482 37.3143 40.0056 37.3145 38.8984C37.3145 35.2359 34.3451 32.2667 30.6826 32.2666ZM65.168 32.2666C61.5054 32.2666 58.5361 35.2359 58.5361 38.8984C58.5362 39.831 58.7296 40.7183 59.0771 41.5234C60.254 39.6748 62.4962 38.4248 65.0703 38.4248C67.7279 38.4248 70.032 39.757 71.1748 41.7051C71.5739 40.8525 71.7987 39.9019 71.7988 38.8984C71.7988 35.236 68.8303 32.2669 65.168 32.2666Z" fill="url(#paint0_linear_2465_117)"/>
<defs>
<linearGradient id="paint0_linear_2465_117" x1="46.355" y1="0.433594" x2="46.355" y2="128.777" gradientUnits="userSpaceOnUse">
<stop stop-color="#6DA0E1"/>
<stop offset="0.466346" stop-color="#5B62B3"/>
<stop offset="1" stop-color="#ECA6BB"/>
</linearGradient>
</defs>
</svg>
