<svg width="93" height="129" viewBox="0 0 93 129" fill="none" xmlns="http://www.w3.org/2000/svg">
<path d="M28.5029 66.2197C24.5961 70.5843 22.2189 76.3483 22.2188 82.667C22.2191 96.2913 33.2643 107.337 46.8887 107.337C60.5132 107.337 71.5582 96.2914 71.5586 82.667C71.5585 76.3481 69.1814 70.5844 65.2744 66.2197H82.2363C82.8352 67.6718 83.3481 69.1689 83.7676 70.7041L91.502 72.7109C92.3837 72.9396 92.9996 73.7357 93 74.6465V87.9932C92.9999 88.9066 92.381 89.7041 91.4961 89.9307L83.4785 91.9824C82.679 94.6218 81.6024 97.1407 80.2832 99.5059L85.6699 109.267C86.1001 110.046 85.9623 111.017 85.333 111.646L75.7979 121.182C75.1834 121.796 74.2426 121.943 73.4697 121.546L62.4316 115.874C60.5374 116.723 58.5617 117.423 56.5195 117.959L54.1025 127.279C53.8738 128.161 53.0772 128.777 52.166 128.777H38.8203C37.9068 128.777 37.1083 128.158 36.8818 127.272L34.291 117.147C32.6626 116.589 31.0837 115.923 29.5625 115.16L18.8809 121.396C18.096 121.854 17.1006 121.726 16.458 121.083L7.0166 111.641C6.37139 110.995 6.24512 109.994 6.70996 109.208L12.8467 98.834C11.6988 96.6756 10.7503 94.3945 10.0273 92.0156L1.78809 89.8789C0.906278 89.65 0.290039 88.8534 0.290039 87.9424V74.5967C0.290411 73.6835 0.90931 72.8857 1.79395 72.6592L9.75098 70.6221C10.1662 69.1155 10.6716 67.6459 11.2598 66.2197H28.5029ZM50.3896 65.7061C52.8191 65.7061 54.2413 68.4429 52.8447 70.4307L49.7734 74.7988L52.8447 79.168C53.399 79.9566 53.5072 80.8631 53.2871 81.6699C53.5073 82.4768 53.399 83.3832 52.8447 84.1719L48.8193 89.8984C47.6246 91.5983 45.1049 91.5983 43.9102 89.8984L39.8857 84.1719C39.3314 83.3832 39.2213 82.4768 39.4414 81.6699C39.2215 80.8631 39.3315 79.9565 39.8857 79.168L42.9551 74.7988L39.8857 70.4307C38.4888 68.4429 39.9103 65.7061 42.3398 65.7061H50.3896ZM46.8887 0.433594C50.5512 0.433594 53.5205 3.40285 53.5205 7.06543C53.5204 9.23463 52.4785 11.1603 50.8682 12.3701V19.6211H72.877C78.3997 19.6212 82.8769 24.0983 82.877 29.6211V32.2666H86.0049C87.1095 32.2666 88.0049 33.162 88.0049 34.2666V48.835C88.0047 49.9393 87.1093 50.835 86.0049 50.835H82.6992V57.793C82.699 58.3451 82.2514 58.793 81.6992 58.793H12.0771C11.5251 58.7929 11.0774 58.345 11.0771 57.793V50.835H7.77246C6.66812 50.8348 5.77268 49.9393 5.77246 48.835V34.2666C5.77246 33.1621 6.66799 32.2667 7.77246 32.2666H11.2549V29.6211C11.2549 24.0983 15.7321 19.6212 21.2549 19.6211H42.9102V12.3711C41.2995 11.1613 40.257 9.23495 40.2568 7.06543C40.2568 3.40302 43.2263 0.433866 46.8887 0.433594ZM30.9727 32.2666C27.3102 32.2667 24.3408 35.2359 24.3408 38.8984C24.3413 42.5605 27.3105 45.5302 30.9727 45.5303C34.6348 45.5301 37.604 42.5605 37.6045 38.8984C37.6045 35.2359 34.6351 32.2667 30.9727 32.2666ZM65.458 32.2666C61.7955 32.2667 58.8262 35.2359 58.8262 38.8984C58.8266 42.5606 61.7958 45.5302 65.458 45.5303C69.1201 45.53 72.0884 42.5605 72.0889 38.8984C72.0889 35.236 69.1204 32.2669 65.458 32.2666Z" fill="url(#paint0_linear_2465_171)"/>
<defs>
<linearGradient id="paint0_linear_2465_171" x1="46.3648" y1="-6.84133" x2="46.645" y2="128.777" gradientUnits="userSpaceOnUse">
<stop stop-color="#6DA0E1"/>
<stop offset="0.524039" stop-color="#5B62B3"/>
<stop offset="1" stop-color="#ECA6BB"/>
</linearGradient>
</defs>
</svg>
